<svg enable-background="new 0 0 703.5 320.3" viewBox="0 0 703.5 320.3" xmlns="http://www.w3.org/2000/svg"><g fill="#231f20"><path d="m48.2 56h-7.6l-31.9-44s.2 7.4.2 14.6v29.4h-7.7v-55.2h8.2l31.3 43.4s-.1-6.8-.1-14.1v-29.3h7.6z"/><path d="m127.1 56h-8.6l-5.7-14.4h-23.7l-5.7 14.4h-8.2l22.5-55.4h6.8zm-16.5-20.9-9.7-24.8-9.7 24.8z"/><path d="m181.9 7.3h-15.5v48.7h-7.8v-48.7h-15.6v-6.5h38.9z"/><path d="m209.1.8h7.8v55.2h-7.8z"/><path d="m275.4 57c-15.5 0-28.5-10.8-28.5-28.5s13-28.5 28.5-28.5 28.5 10.8 28.5 28.5-13 28.5-28.5 28.5m0-50.3c-11.3 0-20.6 8.1-20.6 21.6 0 13.4 9.4 21.6 20.6 21.6 11.3 0 20.6-8.2 20.6-21.6 0-13.5-9.3-21.6-20.6-21.6"/><path d="m380.9 56h-7.6l-31.8-44s.2 7.4.2 14.6v29.4h-7.7v-55.2h8.2l31.3 43.4s-.1-6.8-.1-14.1v-29.3h7.6v55.2z"/><path d="m459.8 56h-8.6l-5.7-14.4h-23.7l-5.6 14.4h-8.2l22.5-55.4h6.8zm-16.4-20.9-9.7-24.8-9.7 24.8z"/><path d="m514.1 56h-27.2v-55.2h7.7v48.6h19.5z"/><path d="m51.8 182h-8.6l-5.7-14.4h-23.7l-5.6 14.4h-8.2l22.5-55.4h6.8zm-16.4-20.9-9.7-24.8-9.7 24.8z"/><path d="m107.1 178.6c-3.4 2.8-8 4.3-13.5 4.3-9.7 0-15.2-6.2-17.8-9.3l4.6-5.2c2.8 3.8 8 7.9 14 7.9s10.8-3.4 10.8-9.3c0-5.8-6.2-8-9-9.1-2.9-1.1-6.7-2.6-8.8-3.7-1.2-.6-3.5-1.8-5.5-3.9s-3.6-5.1-3.6-9.6 2.1-8.2 5-10.6c3-2.6 7.4-4.1 12.7-4.1 9 0 14.3 5.5 15.8 7.1l-4.1 5.3c-2.7-2.9-6.7-5.9-12.2-5.9-5.4 0-9.6 2.6-9.6 7.7s3.8 7 7.1 8.4l10.2 4.2c1 .5 4.4 2.3 6.2 4.5s3.4 5.1 3.4 9.3c.1 4.8-2.1 9.1-5.7 12"/><path d="m170.4 178.6c-3.4 2.8-8 4.3-13.5 4.3-9.7 0-15.2-6.2-17.8-9.3l4.6-5.2c2.8 3.8 8 7.9 14 7.9s10.8-3.4 10.8-9.3c0-5.8-6.2-8-9-9.1-2.9-1.1-6.7-2.6-8.8-3.7-1.2-.6-3.5-1.8-5.5-3.9s-3.6-5.1-3.6-9.6 2.1-8.2 5-10.6c3-2.6 7.4-4.1 12.7-4.1 9 0 14.3 5.5 15.8 7.1l-4.1 5.3c-2.7-2.9-6.7-5.9-12.2-5.9s-9.6 2.6-9.6 7.7 3.8 7 7.1 8.4l10.2 4.2c1 .5 4.4 2.3 6.2 4.5s3.4 5.1 3.4 9.3c0 4.8-2.1 9.1-5.7 12"/><path d="m230.8 183c-15.5 0-28.5-10.8-28.5-28.5s13-28.5 28.5-28.5 28.5 10.8 28.5 28.5-12.9 28.5-28.5 28.5m0-50.3c-11.3 0-20.6 8.1-20.6 21.6 0 13.4 9.4 21.6 20.6 21.6 11.3 0 20.6-8.2 20.6-21.6 0-13.5-9.3-21.6-20.6-21.6"/><path d="m334.7 174.8c-3.4 3.8-9.7 8.2-20.2 8.2-16.1 0-28.2-11.3-28.2-28.5s12.4-28.5 28.2-28.5c10.3 0 16.6 4.3 19.6 7.3l-3.3 6.2c-2.2-2.7-8.3-6.7-16-6.7-11.9 0-20.6 8.6-20.6 21.5 0 13 8.7 21.5 20.6 21.5 7.3 0 12.9-2.8 16.5-6.7z"/><path d="m363.2 126.8h7.8v55.2h-7.8z"/><path d="m449.7 182h-8.7l-5.7-14.4h-23.7l-5.6 14.4h-8.2l22.5-55.4h6.8zm-16.5-20.9-9.7-24.8-9.7 24.8z"/><path d="m504.5 133.3h-15.5v48.7h-7.8v-48.7h-15.6v-6.5h38.9z"/><path d="m531.7 126.8h7.8v55.2h-7.8z"/><path d="m598 183c-15.5 0-28.5-10.8-28.5-28.5s13-28.5 28.5-28.5 28.5 10.8 28.5 28.5-13 28.5-28.5 28.5m0-50.3c-11.3 0-20.6 8.1-20.6 21.6 0 13.4 9.4 21.6 20.6 21.6 11.3 0 20.6-8.2 20.6-21.6 0-13.5-9.3-21.6-20.6-21.6"/><path d="m703.5 182h-7.6l-31.8-44s.2 7.4.2 14.6v29.4h-7.7v-55.2h8.2l31.3 43.4s-.1-6.8-.1-14.1v-29.3h7.6v55.2z"/><path d="m3.6 287.3c0-10.4 5.5-18.3 12.2-21.8 2.9-1.5 6.2-2.6 8.6-2.6 6.6 0 10.6 4.6 10.6 12.5 0 6.9-3 14.7-8.6 19.4-3.4 2.9-7.8 5-12.3 5-7.5 0-10.5-6-10.5-12.5m16 8.8c4.3-1.8 8.7-10.3 8.7-20.6 0-6.5-2.8-9.6-6.5-9.6-1.2 0-2.2.3-3 .7-3.1 1.4-8.5 7.9-8.5 20.2 0 5.9 2.5 9.7 6.7 9.7 1 .1 1.8-.1 2.6-.4"/><path d="m88.2 243.2c0 1.1-.4 2.1-1.2 2.9s-1.8 1.2-3 1.2c-.9 0-2-.5-3.4-1.4s-2.5-1.4-3.4-1.4c-1.8 0-3.2.4-4.3 1.2s-2.1 2.1-2.8 3.8c-.8 1.8-1.8 5.5-3 11.3-.4 2-.8 3.5-1 4.6h8.9c.3 0 .5.1.6.2.1.2.1.5.1 1s-.1 1-.4 1.5-.6.7-.9.7l-9-.2-6.6 27.5c-1.1 4.8-2.7 9-4.6 12.6s-4.2 6.4-6.7 8.4-4.9 3-7.3 3c-1.9 0-3.5-.5-4.9-1.4-1.3-.9-2-2-2-3.3 0-2.3 1.1-3.4 3.4-3.4 1 0 2.1.6 3.5 1.8s2.5 1.8 3.5 1.8c1.7 0 3-.7 3.9-2s1.8-4.1 2.7-8.4l7.6-35.6v-.3c0-.5-.3-.7-.8-.7h-6.4c-.5 0-.7-.3-.7-1 0-.4.3-.7.9-1 5.5-.6 8.3-1.5 8.4-2.5.8-4.1 2.5-8.1 4.9-12.2 2.5-4.1 5.3-7.2 8.4-9.5s6.3-3.4 9.6-3.4c4 .2 6 1.5 6 4.2"/><path d="m169.6 304.6c-3.4 2.8-8 4.3-13.5 4.3-9.7 0-15.2-6.2-17.8-9.3l4.6-5.2c2.8 3.8 8 7.9 14 7.9s10.8-3.4 10.8-9.3c0-5.8-6.2-8-9-9.1-2.9-1.1-6.7-2.6-8.8-3.7-1.2-.6-3.5-1.8-5.5-3.9s-3.6-5.1-3.6-9.6 2.1-8.2 5-10.6c3-2.6 7.4-4.1 12.7-4.1 9 0 14.3 5.5 15.8 7.1l-4.1 5.3c-2.7-2.9-6.7-5.9-12.2-5.9s-9.6 2.6-9.6 7.7 3.8 7 7.1 8.4l10.2 4.2c1 .5 4.4 2.3 6.2 4.5s3.4 5.1 3.4 9.3c.1 4.8-2.1 9.1-5.7 12"/><path d="m249.8 300.8c-3.4 3.8-9.7 8.2-20.2 8.2-16.1 0-28.2-11.3-28.2-28.5s12.4-28.5 28.2-28.5c10.3 0 16.6 4.3 19.6 7.3l-3.3 6.2c-2.2-2.7-8.3-6.7-16-6.7-11.9 0-20.6 8.6-20.6 21.5 0 13 8.7 21.5 20.6 21.5 7.3 0 12.9-2.8 16.5-6.7z"/><path d="m323 308h-7.7v-25.8h-29.4v25.8h-7.8v-55.2h7.8v22.8h29.4v-22.8h7.7z"/><path d="m381.6 309c-15.5 0-28.5-10.8-28.5-28.5s13-28.5 28.5-28.5 28.5 10.8 28.5 28.5c-.1 17.7-13 28.5-28.5 28.5m0-50.3c-11.3 0-20.6 8.1-20.6 21.6 0 13.4 9.4 21.6 20.6 21.6 11.3 0 20.6-8.2 20.6-21.6-.1-13.5-9.4-21.6-20.6-21.6"/><path d="m467.3 308h-27.2v-55.2h7.8v48.6h19.4z"/><path d="m543.7 308h-8.6l-5.7-14.4h-23.7l-5.7 14.4h-8.2l22.5-55.4h6.8zm-16.4-20.9-9.7-24.8-9.7 24.8z"/><path d="m608.2 308h-9.4l-14.4-23.8h-5.9v23.8h-7.8v-55.2h15.6c5.5 0 10 1.3 13.3 3.8 3.3 2.6 5.4 6.6 5.4 11.7 0 9.7-6.7 14-12.6 15.1zm-14.7-46.9c-2.5-1.8-5.4-2-9.3-2h-5.7v18.7h5.7c3.8 0 6.8-.2 9.3-1.9 2.5-1.8 3.5-4.1 3.5-7.4s-1-5.6-3.5-7.4"/><path d="m662.5 304.6c-3.4 2.8-8 4.3-13.5 4.3-9.7 0-15.2-6.2-17.8-9.3l4.6-5.2c2.8 3.8 8 7.9 14 7.9s10.8-3.4 10.8-9.3c0-5.8-6.2-8-9-9.1-2.9-1.1-6.7-2.6-8.8-3.7-1.2-.6-3.5-1.8-5.5-3.9s-3.6-5.1-3.6-9.6 2.1-8.2 5-10.6c3-2.6 7.4-4.1 12.7-4.1 9 0 14.3 5.5 15.8 7.1l-4.1 5.3c-2.7-2.9-6.7-5.9-12.2-5.9-5.4 0-9.6 2.6-9.6 7.7s3.8 7 7.1 8.4l10.2 4.2c1 .5 4.4 2.3 6.2 4.5s3.4 5.1 3.4 9.3c0 4.8-2.1 9.1-5.7 12"/></g></svg>